<svg width="42" height="39" viewBox="0 0 42 39" fill="none" xmlns="http://www.w3.org/2000/svg">
<path d="M16.5914 0.718735C19.4104 0.16505 22.3581 0.132209 25.2477 0.666898C25.6343 2.90173 27.0905 4.96098 29.4139 6.16791C31.7371 7.37481 34.4239 7.46784 36.7314 6.63259C38.7084 8.62609 40.1788 10.9541 41.0916 13.4464C39.1642 14.8709 37.937 17.0505 37.9502 19.4873C37.9634 21.9256 39.2156 24.093 41.1602 25.4966C40.7198 26.7343 40.1347 27.9501 39.3994 29.1251C38.6641 30.3002 37.814 31.3781 36.8691 32.3539C34.553 31.544 31.8682 31.6663 29.5586 32.8977C27.2503 34.1285 25.8169 36.2011 25.453 38.438C22.6342 38.9916 19.6865 39.0244 16.7968 38.4897C16.4103 36.255 14.9539 34.1956 12.6306 32.9887C10.3074 31.7818 7.62067 31.6888 5.31305 32.5241C3.33613 30.5306 1.86576 28.2025 0.952908 25.7102C2.88028 24.2858 4.10756 22.106 4.09437 19.6693C4.08117 17.2311 2.82892 15.0637 0.884316 13.66C1.32469 12.4222 1.90978 11.2066 2.64506 10.0315C3.38035 8.85649 4.2305 7.77854 5.17528 6.80275C7.49149 7.61256 10.1764 7.49046 12.486 6.25891C14.7942 5.02805 16.2277 2.95557 16.5914 0.718735ZM21.0536 25.3654C24.5594 25.3466 27.3876 22.7404 27.3703 19.5441C27.353 16.3481 24.4968 13.7723 20.991 13.7911C17.485 13.81 14.657 16.4163 14.6743 19.6124C14.6916 22.8086 17.5477 25.3843 21.0536 25.3654Z" fill="black"/>
</svg>
