<svg width="55" height="48" viewBox="0 0 60 54" fill="none" xmlns="http://www.w3.org/2000/svg">
<path d="M31 2.5V1.5H30C14.1135 1.5 1 12.7955 1 27C1 41.2044 14.1135 52.5 30 52.5C45.8868 52.5 59 41.2044 59 27C59 19.6356 55.4562 13.0332 49.8411 8.39985L53.8 8.4L54.8 8.40004V7.4V2.5V1.5H53.8H37H36V2.5V17.2V18.2H37H42.6H43.6001L43.6 17.1999L43.5996 12.6405C48.3922 16.0733 51.4 21.2529 51.4 27C51.4 37.1513 41.9486 45.6 30 45.6C18.0514 45.6 8.6 37.1513 8.6 27C8.6 16.8488 18.0514 8.4 30 8.4H31V7.4V2.5Z" fill="#EFBF14" stroke="#EFBF14" stroke-width="2"/>
</svg>
